<svg id="Layer_1" data-name="Layer 1" xmlns="http://www.w3.org/2000/svg" viewBox="0 0 99.98 38.2"><title>logo</title><g id="HP"><g id="BUFFY-logo"><path id="Fill-4" d="M50.38,11.55c0-.66-2.32-1-3.49-1-4.64,0-6.67,1.12-6.31,1.79,1.3,2.4,1.56,5.76,1.56,8,0,3.28-1,4.44-2.58,4.44-1.14,0-1.77-.8-1.77-2.51V11.57c0-.66-2.43-1-3.65-1-4,0-6.42,1.55-5.86,2.72,1.16,2.42,1.74,5.2,1.38,9.84s2.36,6.21,5.75,6.21a7.62,7.62,0,0,0,6.36-2.85c0-.05.18-.14.25,0,.75,1.69,2.66,2.86,5.24,2.86s4.49-1.3,4.6-2.29c.07-.61-.22-.79-.59-1.17a5.94,5.94,0,0,1-1.09-3.57c0-3.28.2-10.79.2-10.79M14.47,25.05c-.72,0-1.78-.23-1.78-.84,0-.82,0-5.31,0-5.31A2.12,2.12,0,0,1,13,17.54a1.43,1.43,0,0,1,1.14-.37c2.11,0,3.17,1,3.17,3.9C17.31,23.41,16.36,25.05,14.47,25.05ZM12.68,6.2c0-.32.14-.43.3-.43h.86a2.15,2.15,0,0,1,1.9,1,5.16,5.16,0,0,1,.67,2.87,4.8,4.8,0,0,1-.65,2.81,2.36,2.36,0,0,1-2,.89l-.59,0a.44.44,0,0,1-.46-.47Zm9.15,8.08c-.37-.14-.31-.44,0-.57a5.84,5.84,0,0,0,3.41-5.57c0-3.31-4.18-6.23-11.52-6.23A40.39,40.39,0,0,0,.72,4V4A1.23,1.23,0,0,0,0,5.12,1.23,1.23,0,0,0,.79,6.24c2,.82,3.2,1.61,3.2,4.18,0,3.67-.14,6.76-.35,9.27-.17,2-.25,3.16-1.2,4.23C2,24.49,1,25.23,1,25.55c0,1.79,5.12,3.82,12.69,3.82,9.86,0,13.74-4.61,13.74-8.5C27.45,17.58,25.76,15.78,21.83,14.28Z" transform="translate(0 -0.2)"/><path id="Fill-6" d="M96.8,10.56c-1.12,0-3.36.41-3.36,1.12s1.15,1.52.71,3.61c-.13.65-2,6.22-2.73,6.22s-1.48-5.07-1.62-5.89c-.33-1.88.61-2.48.61-3.68,0-.85-1.8-1.38-4.25-1.38a30,30,0,0,0-6.67.89h0c-2.24.63-3.22-.17-3.3-1.2-.08-1.18-.08-2.36-.07-3.49s.61-1.49,1.38-1.11A2.56,2.56,0,0,0,80,5.59a1.63,1.63,0,0,0,.1-2.39,7.4,7.4,0,0,0-5.84-3c-4.34,0-6.69,2.69-6.69,6.19v3.78c0,.86-.36,1.61-2.29,1.61-1.71,0-2.4-.56-2.4-1.68s-.1-2.2-.09-3.33.58-1.45,1.37-1.11,1.77.47,2.31-.07a1.65,1.65,0,0,0,.11-2.39,6.9,6.9,0,0,0-5.64-3c-4.34,0-6.7,2.69-6.7,6.19v4a.89.89,0,0,1-.46.87c-1,.52-2,1.11-2,1.67s1.11,1.23,1.82,2a1.7,1.7,0,0,1,.67,1.53v5a14.35,14.35,0,0,1-.77,5c-.72,1.78,1.46,3,5.36,3,4.15,0,5.85-1.24,5.87-2.32,0-.73-1.32-1.5-1.32-4.66l-.12-5.49c0-1.23.52-2.51,2.22-2.51,1.55,0,2.09,1.17,2.09,2.69v5a11.82,11.82,0,0,1-.77,4.36c-1,1.64,1.45,3,5.35,3C76.3,29.35,78,28.11,78,27c0-.73-1.32-1.57-1.32-4.66l-.12-6.28c0-1.21.64-1.87,1.63-1.87,1.32,0,1.77.74,2.32,1.94.06.13,4,13.31,4,13.31.7,2.49,1.34,5.17.49,5.52s-1.47-.07-2-1.73c-.76-2.2-.86-3.9-2.76-3.77a4.19,4.19,0,0,0-3.7,4.24c.16,2.19,3.37,4.67,6.83,4.67,2.88,0,5.35-1.62,7.92-7.65,0,0,6.31-13.47,7-14.78a36.34,36.34,0,0,0,1.7-3.41c.34-1.36-1-2-3.12-2" transform="translate(0 -0.2)"/></g></g></svg>